<svg width="50" height="67" viewBox="0 0 50 67" fill="none" xmlns="http://www.w3.org/2000/svg">
<path d="M25 66.8C22.6533 65.264 20.648 63.344 18.984 61.04C17.3627 58.7787 16.3173 56.432 15.848 54H0.872V8.688C3.73067 8.77333 6.312 9.86133 8.616 11.952C10.9627 14 12.7547 16.7733 13.992 20.272C15.2293 23.728 15.784 27.5467 15.656 31.728C13.9067 32.3253 12.6693 33.008 11.944 33.776C11.2187 34.544 10.856 35.5467 10.856 36.784C10.856 39.5147 12.776 41.3067 16.616 42.16C17.128 42.2453 17.4693 42.3307 17.64 42.416C18.2373 41.1787 18.9413 39.8347 19.752 38.384C20.9467 36.2933 21.544 35.0133 21.544 34.544C21.544 33.9467 21.3947 33.4987 21.096 33.2C20.7973 32.8587 20.2 32.6027 19.304 32.432C19.6453 29.2747 19.816 26.4587 19.816 23.984C19.816 17.7973 18.8347 11.4827 16.872 5.04C19.0053 5.04 20.6267 4.72 21.736 4.08C22.8453 3.44 23.9333 2.18133 25 0.303997C26.0667 2.01066 26.8347 3.12 27.304 3.632C27.7733 4.144 28.3493 4.48533 29.032 4.656C29.7147 4.784 31.08 4.912 33.128 5.04C31.1653 11.4827 30.184 17.776 30.184 23.92C30.184 26.7787 30.376 29.7867 30.76 32.944C29.9067 33.0293 29.3307 33.2 29.032 33.456C28.7333 33.712 28.584 34.1387 28.584 34.736C28.584 34.992 28.712 35.3973 28.968 35.952C29.224 36.5067 29.6507 37.3173 30.248 38.384C31.1013 39.8347 31.8053 41.1787 32.36 42.416C32.5307 42.3307 32.872 42.2453 33.384 42.16C34.9627 41.8187 36.1573 41.456 36.968 41.072C37.7787 40.6453 38.3333 40.112 38.632 39.472C38.9733 38.832 39.144 37.936 39.144 36.784C39.144 35.5467 38.7813 34.544 38.056 33.776C37.3307 33.008 36.0933 32.3253 34.344 31.728C34.216 27.5467 34.7707 23.728 36.008 20.272C37.2453 16.7733 39.016 14 41.32 11.952C43.6667 9.86133 46.2693 8.77333 49.128 8.688V54H34.152C33.6827 56.432 32.616 58.7787 30.952 61.04C29.3307 63.344 27.3467 65.264 25 66.8ZM15.528 50.16C15.5707 48.752 15.8267 47.3013 16.296 45.808L15.848 45.744C12.6053 45.0613 10.3227 43.952 9 42.416C7.67733 40.88 7.016 39.0027 7.016 36.784C7.016 35.2053 7.42133 33.7547 8.232 32.432C9.08533 31.0667 10.28 29.9787 11.816 29.168C11.688 25.5413 10.984 22.3627 9.704 19.632C8.46667 16.9013 6.80267 14.9173 4.712 13.68V50.16H15.528ZM22.44 50.16C21.928 48.9227 21.0747 47.92 19.88 47.152C19.624 48.0053 19.4533 49.008 19.368 50.16H22.44ZM19.752 54C20.4773 56.8587 22.2267 59.5253 25 62C27.7733 59.5253 29.5227 56.8587 30.248 54H19.752ZM21.224 43.824C22.8453 44.72 24.104 45.9147 25 47.408C25.896 45.9147 27.1547 44.72 28.776 43.824C28.4347 43.056 27.816 41.8827 26.92 40.304C25.9387 38.4267 25.2987 37.1253 25 36.4C24.7013 37.1253 24.0613 38.4267 23.08 40.304C22.184 41.8827 21.5653 43.056 21.224 43.824ZM21.736 8.304C23.016 13.5947 23.656 18.9067 23.656 24.24C23.656 25.52 23.5707 27.4827 23.4 30.128C24.1253 30.5547 24.6587 31.3227 25 32.432C25.3413 31.28 25.8747 30.4267 26.6 29.872C26.4293 27.2267 26.344 25.3067 26.344 24.112C26.344 18.8213 26.984 13.552 28.264 8.304C26.984 7.96266 25.896 7.38666 25 6.576C24.104 7.38666 23.016 7.96266 21.736 8.304ZM30.632 50.16C30.5467 49.136 30.3973 48.176 30.184 47.28C29.032 47.9627 28.1573 48.9227 27.56 50.16H30.632ZM33.768 45.936C34.1947 47.4293 34.4293 48.8373 34.472 50.16H45.288V13.68C43.1973 14.9173 41.512 16.9013 40.232 19.632C38.9947 22.3627 38.312 25.5413 38.184 29.168C39.72 29.9787 40.8933 31.0667 41.704 32.432C42.5573 33.7547 42.984 35.2053 42.984 36.784C42.984 39.3013 42.28 41.2853 40.872 42.736C39.464 44.1867 37.224 45.232 34.152 45.872L33.768 45.936Z" fill="white"/>
</svg>
