<svg width="1347" height="1080" viewBox="0 0 1347 1080" fill="none" xmlns="http://www.w3.org/2000/svg">
<path d="M0.439984 585.72C0.439984 547.96 11.64 517.56 34.04 494.52C55.8 470.84 92.28 449.72 143.48 431.16L155.96 426.36C131 415.48 111.16 398.52 96.44 375.48C81.08 351.8 73.4 324.92 73.4 294.84C73.4 260.92 82.68 227.64 101.24 195C105.72 186.68 108.92 175.16 110.84 160.44C143.48 173.88 169.72 195.96 189.56 226.68C208.76 256.76 218.36 288.44 218.36 321.72C218.36 359.48 205.88 390.84 180.92 415.8C211.64 402.36 232.76 387.96 244.28 372.6C255.8 357.24 261.56 336.76 261.56 311.16C261.56 293.24 259.32 277.56 254.84 264.12C250.36 250.68 241.4 234.04 227.96 214.2C201.72 174.52 188.6 138.36 188.6 105.72C188.6 80.12 194.68 56.76 206.84 35.64C219 13.8799 235.64 -3.08007 256.76 -15.2401C278.52 -27.4001 302.2 -33.4801 327.8 -33.4801C348.28 -33.4801 366.52 -30.9201 382.52 -25.8C399.16 -21.3201 419.64 -12.3601 443.96 1.07996C453.56 6.83996 464.12 11.9599 475.64 16.4399C471.8 4.91996 469.88 -7.88002 469.88 -21.96C469.88 -56.52 481.4 -89.8 504.44 -121.8C527.48 -154.44 560.44 -177.16 603.32 -189.96L622.52 -195.72C633.4 -197.64 640.76 -199.88 644.6 -202.44C651 -185.8 654.2 -167.88 654.2 -148.68C654.2 -121.8 648.12 -95.24 635.96 -69C623.8 -43.4 606.84 -21.32 585.08 -2.76005C563.32 15.1599 539.32 26.04 513.08 29.88C525.88 31.8 538.04 32.7599 549.56 32.7599C591.16 32.7599 624.76 18.68 650.36 -9.48002C676.6 -38.28 689.72 -77 689.72 -125.64C689.72 -147.4 686.84 -170.76 681.08 -195.72H732.92C727.16 -170.76 724.28 -147.4 724.28 -125.64C724.28 -77 737.08 -38.28 762.68 -9.48002C788.92 18.68 822.84 32.7599 864.44 32.7599C876.6 32.7599 888.76 31.8 900.92 29.88C874.68 26.04 850.68 15.1599 828.92 -2.76005C807.16 -21.32 790.2 -43.4 778.04 -69C765.88 -95.24 759.8 -121.8 759.8 -148.68C759.8 -167.88 763 -185.8 769.4 -202.44C773.24 -199.88 780.6 -197.64 791.48 -195.72L810.68 -189.96C853.56 -177.16 886.52 -154.44 909.56 -121.8C932.6 -89.8 944.12 -56.52 944.12 -21.96C944.12 -7.88002 942.2 4.91996 938.36 16.4399C949.88 11.9599 960.44 6.83996 970.04 1.07996C994.36 -12.3601 1014.52 -21.3201 1030.52 -25.8C1047.16 -30.9201 1065.72 -33.4801 1086.2 -33.4801C1111.8 -33.4801 1135.16 -27.4001 1156.28 -15.2401C1178.04 -3.08007 1195 13.8799 1207.16 35.64C1219.32 56.76 1225.4 80.12 1225.4 105.72C1225.4 138.36 1212.28 174.52 1186.04 214.2C1172.6 234.04 1163.64 250.68 1159.16 264.12C1154.68 277.56 1152.44 293.24 1152.44 311.16C1152.44 336.76 1158.2 357.24 1169.72 372.6C1181.24 387.96 1202.36 402.36 1233.08 415.8C1208.12 390.84 1195.64 359.48 1195.64 321.72C1195.64 288.44 1205.24 256.76 1224.44 226.68C1244.28 195.96 1270.52 173.88 1303.16 160.44C1305.08 175.16 1308.28 186.68 1312.76 195C1331.32 227.64 1340.6 260.92 1340.6 294.84C1340.6 324.92 1332.92 351.8 1317.56 375.48C1302.84 398.52 1283 415.48 1258.04 426.36L1270.52 431.16C1321.72 449.72 1358.2 470.84 1379.96 494.52C1402.36 517.56 1413.56 547.96 1413.56 585.72C1413.56 619.64 1403.32 648.44 1382.84 672.12C1362.36 695.16 1327.48 718.52 1278.2 742.2C1234.68 762.68 1204.6 782.2 1187.96 800.76C1171.96 818.68 1163.96 841.08 1163.96 867.96C1163.96 880.76 1165.56 892.28 1168.76 902.52C1177.72 867.32 1195 839.8 1220.6 819.96C1246.84 799.48 1281.72 789.24 1325.24 789.24C1335.48 789.24 1343.48 789.56 1349.24 790.2L1361.72 791.16C1366.2 791.16 1375.16 790.2 1388.6 788.28C1385.4 824.76 1375.8 856.12 1359.8 882.36C1344.44 908.6 1325.24 928.44 1302.2 941.88C1279.16 955.32 1254.84 962.04 1229.24 962.04C1216.44 962.04 1205.24 960.76 1195.64 958.2C1211 986.36 1222.2 1011.32 1229.24 1033.08C1236.28 1054.84 1239.8 1075.64 1239.8 1095.48C1239.8 1121.08 1233.4 1144.44 1220.6 1165.56C1208.44 1186.68 1191.8 1203.32 1170.68 1215.48C1149.56 1228.28 1126.2 1234.68 1100.6 1234.68C1088.44 1234.68 1075.64 1232.76 1062.2 1228.92C1048.76 1225.08 1031.8 1219 1011.32 1210.68C963.96 1188.92 921.08 1178.04 882.68 1178.04C840.44 1178.04 804.28 1194.04 774.2 1226.04C804.28 1211.96 833.72 1204.92 862.52 1204.92C921.4 1204.92 971.96 1234.04 1014.2 1292.28C1021.24 1301.88 1030.52 1309.56 1042.04 1315.32C1004.92 1342.2 963.32 1355.64 917.24 1355.64C878.84 1355.64 844.28 1346.04 813.56 1326.84C783.48 1308.28 763.96 1283.32 755 1251.96C734.52 1289.08 724.28 1332.28 724.28 1381.56C724.28 1393.72 724.6 1403 725.24 1409.4H688.76C689.4 1403 689.72 1393.72 689.72 1381.56C689.72 1332.28 679.48 1289.08 659 1251.96C650.04 1283.32 630.2 1308.28 599.48 1326.84C569.4 1346.04 535.16 1355.64 496.76 1355.64C450.68 1355.64 409.08 1342.2 371.96 1315.32C383.48 1309.56 392.76 1301.88 399.8 1292.28C442.04 1234.04 492.6 1204.92 551.48 1204.92C580.28 1204.92 609.72 1211.96 639.8 1226.04C609.72 1194.04 573.56 1178.04 531.32 1178.04C492.92 1178.04 450.04 1188.92 402.68 1210.68C382.2 1219 365.24 1225.08 351.8 1228.92C338.36 1232.76 325.56 1234.68 313.4 1234.68C287.8 1234.68 264.44 1228.28 243.32 1215.48C222.2 1203.32 205.56 1186.68 193.4 1165.56C180.6 1144.44 174.2 1121.08 174.2 1095.48C174.2 1075.64 177.72 1054.84 184.76 1033.08C191.8 1011.32 203 986.36 218.36 958.2C208.76 960.76 197.56 962.04 184.76 962.04C159.16 962.04 134.84 955.32 111.8 941.88C88.76 928.44 69.56 908.6 54.2 882.36C38.2 856.12 28.6 824.76 25.4 788.28C27.32 788.28 32.12 788.92 39.8 790.2C46.84 791.48 55.16 791.48 64.76 790.2C70.52 789.56 78.52 789.24 88.76 789.24C132.28 789.24 167.16 799.48 193.4 819.96C219 839.8 236.28 867.32 245.24 902.52C248.44 892.28 250.04 880.76 250.04 867.96C250.04 841.08 242.04 818.68 226.04 800.76C209.4 782.2 179.32 762.68 135.8 742.2C86.52 718.52 51.64 695.16 31.16 672.12C10.68 648.44 0.439984 619.64 0.439984 585.72ZM14.84 744.12C14.84 737.08 17.08 731.32 21.56 726.84C26.04 722.36 31.8 720.12 38.84 720.12C45.24 720.12 51 722.36 56.12 726.84C60.6 731.32 62.84 737.08 62.84 744.12C62.84 750.52 60.6 756.28 56.12 761.4C51 765.88 45.24 768.12 38.84 768.12C31.8 768.12 26.04 765.88 21.56 761.4C17.08 756.28 14.84 750.52 14.84 744.12ZM29.24 585.72C29.24 608.76 34.36 627.64 44.6 642.36C42.68 617.4 48.12 593.72 60.92 571.32C73.08 548.28 91.96 529.08 117.56 513.72C142.52 498.36 172.92 489.08 208.76 485.88C223.48 483.96 234.68 480.44 242.36 475.32C244.28 485.56 245.24 495.8 245.24 506.04C245.24 536.12 238.52 563.96 225.08 589.56C211 614.52 192.12 634.68 168.44 650.04C144.76 664.76 119.16 672.12 91.64 672.12C87.16 672.12 79.8 671.48 69.56 670.2C87.48 684.28 113.4 699.32 147.32 715.32C195.32 737.72 229.24 760.44 249.08 783.48C268.92 806.52 278.84 834.68 278.84 867.96C278.84 883.32 276.28 897.72 271.16 911.16C266.68 925.24 257.4 945.4 243.32 971.64C228.6 999.16 218.36 1022.2 212.6 1040.76C206.2 1059.96 203 1078.2 203 1095.48C203 1126.2 212.28 1151.8 230.84 1172.28C250.04 1192.76 274.68 1203.96 304.76 1205.88C268.28 1173.88 250.04 1134.84 250.04 1088.76C250.04 1062.52 255.8 1036.28 267.32 1010.04C279.48 983.8 296.12 959.8 317.24 938.04C340.28 963 357.88 988.6 370.04 1014.84C382.2 1041.08 388.28 1066.68 388.28 1091.64C388.28 1133.88 370.68 1171.32 335.48 1203.96C350.84 1200.12 369.4 1193.4 391.16 1183.8C443 1160.76 490.36 1149.24 533.24 1149.24C577.4 1149.24 614.84 1163.64 645.56 1192.44C676.28 1221.88 696.76 1260.92 707 1309.56C717.24 1260.92 737.72 1221.88 768.44 1192.44C799.16 1163.64 836.6 1149.24 880.76 1149.24C923.64 1149.24 971 1160.76 1022.84 1183.8C1044.6 1193.4 1063.16 1200.12 1078.52 1203.96C1043.32 1171.32 1025.72 1133.88 1025.72 1091.64C1025.72 1066.68 1031.8 1041.08 1043.96 1014.84C1056.12 988.6 1073.72 963 1096.76 938.04C1117.88 959.8 1134.2 983.8 1145.72 1010.04C1157.88 1036.28 1163.96 1062.52 1163.96 1088.76C1163.96 1134.84 1145.72 1173.88 1109.24 1205.88C1139.32 1203.96 1163.64 1192.76 1182.2 1172.28C1201.4 1151.8 1211 1126.2 1211 1095.48C1211 1078.2 1207.8 1059.96 1201.4 1040.76C1195.64 1022.2 1185.4 999.16 1170.68 971.64C1156.6 945.4 1147 925.24 1141.88 911.16C1137.4 897.72 1135.16 883.32 1135.16 867.96C1135.16 834.68 1145.08 806.52 1164.92 783.48C1184.76 760.44 1218.68 737.72 1266.68 715.32C1300.6 699.32 1326.52 684.28 1344.44 670.2C1334.2 671.48 1326.84 672.12 1322.36 672.12C1294.84 672.12 1269.24 664.76 1245.56 650.04C1221.88 634.68 1203 614.52 1188.92 589.56C1175.48 563.96 1168.76 536.44 1168.76 507C1168.76 496.12 1169.72 485.56 1171.64 475.32C1179.32 480.44 1190.52 483.96 1205.24 485.88C1241.08 489.08 1271.48 498.36 1296.44 513.72C1322.04 529.08 1340.92 548.28 1353.08 571.32C1365.88 593.72 1371.32 617.4 1369.4 642.36C1379.64 627.64 1384.76 608.76 1384.76 585.72C1384.76 554.36 1375.8 529.4 1357.88 510.84C1339.96 492.28 1307.64 474.68 1260.92 458.04C1211 439.48 1175.48 419.32 1154.36 397.56C1133.88 375.8 1123.64 347 1123.64 311.16C1123.64 290.68 1126.2 272.44 1131.32 256.44C1137.08 239.8 1147 220.6 1161.08 198.84C1173.88 179.64 1182.84 163 1187.96 148.92C1193.72 134.2 1196.6 119.8 1196.6 105.72V99C1185.08 121.4 1167.8 138.68 1144.76 150.84C1122.36 163 1098.04 169.08 1071.8 169.08C1047.48 169.08 1024.12 164.28 1001.72 154.68C979.32 144.44 960.44 129.72 945.08 110.52C945.72 109.88 949.24 108.28 955.64 105.72C962.68 103.16 969.08 98.04 974.84 90.36C990.2 68.6 1008.44 52.6 1029.56 42.3599C1050.68 32.12 1073.08 27 1096.76 27C1130.04 27 1159.48 35.64 1185.08 52.92C1176.12 35 1163 20.92 1145.72 10.6799C1129.08 0.439964 1109.24 -4.68003 1086.2 -4.68003C1068.28 -4.68003 1052.6 -2.76003 1039.16 1.07996C1025.72 4.91994 1007.16 13.24 983.48 26.04C957.88 40.1199 936.12 49.7199 918.2 54.84C900.92 59.32 883 61.56 864.44 61.56C826.04 61.56 792.76 51.32 764.6 30.84C737.08 10.36 717.88 -18.12 707 -54.6001C696.12 -18.12 676.6 10.36 648.44 30.84C620.92 51.32 587.96 61.56 549.56 61.56C531 61.56 512.76 59.32 494.84 54.84C477.56 49.7199 456.12 40.1199 430.52 26.04C406.84 13.24 388.28 4.91994 374.84 1.07996C361.4 -2.76003 345.72 -4.68003 327.8 -4.68003C304.76 -4.68003 284.6 0.439964 267.32 10.6799C250.68 20.92 237.88 35 228.92 52.92C254.52 35.64 283.96 27 317.24 27C340.92 27 363.32 32.12 384.44 42.3599C405.56 52.6 423.8 68.6 439.16 90.36C444.92 98.04 451 103.16 457.4 105.72C464.44 108.28 468.28 109.88 468.92 110.52C453.56 129.72 434.68 144.44 412.28 154.68C389.88 164.28 366.52 169.08 342.2 169.08C315.96 169.08 291.32 163 268.28 150.84C245.88 138.68 228.92 121.4 217.4 99V105.72C217.4 119.8 220.28 134.2 226.04 148.92C231.16 163 240.12 179.64 252.92 198.84C267 220.6 276.6 239.8 281.72 256.44C287.48 272.44 290.36 290.68 290.36 311.16C290.36 347 279.8 375.8 258.68 397.56C238.2 419.32 203 439.48 153.08 458.04C106.36 474.68 74.04 492.28 56.12 510.84C38.2 529.4 29.24 554.36 29.24 585.72ZM31.16 405.24C31.16 398.2 33.4 392.44 37.88 387.96C42.36 383.48 48.12 381.24 55.16 381.24C61.56 381.24 67.32 383.48 72.44 387.96C76.92 392.44 79.16 398.2 79.16 405.24C79.16 411.64 76.92 417.4 72.44 422.52C67.32 427 61.56 429.24 55.16 429.24C48.12 429.24 42.36 427 37.88 422.52C33.4 417.4 31.16 411.64 31.16 405.24ZM58.04 833.4C65.72 864.12 82.04 889.4 107 909.24C131.96 929.08 158.84 939 187.64 939C193.4 939 202.68 937.72 215.48 935.16L58.04 833.4ZM204.92 511.8C164.6 515.64 131.64 528.44 106.04 550.2C80.44 571.96 67.32 598.52 66.68 629.88L204.92 511.8ZM221.24 911.16C211 874.68 193.4 848.76 168.44 833.4C142.84 817.4 109.88 810.68 69.56 813.24L221.24 911.16ZM80.12 649.08C83.32 649.72 87.8 650.04 93.56 650.04C124.28 650.04 152.12 638.2 177.08 614.52C201.4 590.2 215.8 561.4 220.28 528.12L80.12 649.08ZM103.16 1007.16C103.16 998.84 106.04 991.8 111.8 986.04C116.92 980.92 123.64 978.36 131.96 978.36C140.28 978.36 147.32 980.92 153.08 986.04C158.2 991.8 160.76 998.84 160.76 1007.16C160.76 1015.48 158.2 1022.2 153.08 1027.32C147.32 1033.08 140.28 1035.96 131.96 1035.96C123.64 1035.96 116.92 1033.08 111.8 1027.32C106.04 1022.2 103.16 1015.48 103.16 1007.16ZM120.44 211.32C105.08 238.84 97.4 266.36 97.4 293.88C97.4 315.64 102.2 335.8 111.8 354.36C121.4 372.92 134.84 387.64 152.12 398.52L120.44 211.32ZM131 141.24C131 134.2 133.24 128.44 137.72 123.96C142.2 119.48 147.96 117.24 155 117.24C161.4 117.24 167.16 119.48 172.28 123.96C176.76 128.44 179 134.2 179 141.24C179 147.64 176.76 153.4 172.28 158.52C167.16 163 161.4 165.24 155 165.24C147.96 165.24 142.2 163 137.72 158.52C133.24 153.4 131 147.64 131 141.24ZM174.2 388.92C188.92 369.72 196.28 346.36 196.28 318.84C196.28 297.72 191.8 277.24 182.84 257.4C173.24 236.92 160.12 219.96 143.48 206.52L174.2 388.92ZM177.08 681.72C177.08 673.4 179.96 666.68 185.72 661.56C190.84 655.8 197.56 652.92 205.88 652.92C214.2 652.92 221.24 655.8 227 661.56C232.12 666.68 234.68 673.4 234.68 681.72C234.68 690.04 232.12 697.08 227 702.84C221.24 707.96 214.2 710.52 205.88 710.52C197.56 710.52 190.84 707.96 185.72 702.84C179.96 697.08 177.08 690.04 177.08 681.72ZM242.36 94.2C252.6 111.48 267.32 124.92 286.52 134.52C305.72 143.48 326.2 147.96 347.96 147.96C374.84 147.96 398.52 140.92 419 126.84L242.36 94.2ZM419 102.84C407.48 86.84 392.44 74.36 373.88 65.4C355.32 56.44 335.48 51.96 314.36 51.96C290.68 51.96 267.96 58.36 246.2 71.16L419 102.84ZM251 607.8C251 504.76 270.84 411 310.52 326.52C350.84 242.04 405.88 175.48 475.64 126.84C545.4 78.2 622.52 53.88 707 53.88C791.48 53.88 868.6 78.2 938.36 126.84C1008.12 175.48 1062.84 242.04 1102.52 326.52C1142.84 411 1163 504.76 1163 607.8C1163 710.84 1142.84 804.6 1102.52 889.08C1062.84 973.56 1008.12 1040.12 938.36 1088.76C868.6 1137.4 791.48 1161.72 707 1161.72C622.52 1161.72 545.4 1137.4 475.64 1088.76C405.88 1040.12 350.84 973.56 310.52 889.08C270.84 804.6 251 710.84 251 607.8ZM294.2 222.84C294.2 214.52 296.76 207.8 301.88 202.68C307.64 196.92 314.68 194.04 323 194.04C331.32 194.04 338.04 196.92 343.16 202.68C348.92 207.8 351.8 214.52 351.8 222.84C351.8 231.16 348.92 238.2 343.16 243.96C338.04 249.08 331.32 251.64 323 251.64C314.68 251.64 307.64 249.08 301.88 243.96C296.76 238.2 294.2 231.16 294.2 222.84ZM304.76 992.76C284.28 1019 274.04 1049.72 274.04 1084.92C274.04 1102.84 276.92 1119.8 282.68 1135.8C288.44 1152.44 297.08 1166.52 308.6 1178.04L304.76 992.76ZM325.88 1275C325.88 1266.68 328.44 1259.64 333.56 1253.88C339.32 1248.76 346.36 1246.2 354.68 1246.2C363 1246.2 369.72 1248.76 374.84 1253.88C380.6 1259.64 383.48 1266.68 383.48 1275C383.48 1283.32 380.6 1290.04 374.84 1295.16C369.72 1300.92 363 1303.8 354.68 1303.8C346.36 1303.8 339.32 1300.92 333.56 1295.16C328.44 1290.04 325.88 1283.32 325.88 1275ZM331.64 1177.08C352.12 1154.68 362.36 1125.56 362.36 1089.72C362.36 1071.16 359.16 1053.24 352.76 1035.96C347 1019.32 338.68 1004.92 327.8 992.76L331.64 1177.08ZM385.4 -82.4401C385.4 -90.7601 387.96 -97.4801 393.08 -102.6C398.84 -108.36 405.88 -111.24 414.2 -111.24C422.52 -111.24 429.24 -108.36 434.36 -102.6C440.12 -97.4801 443 -90.7601 443 -82.4401C443 -74.12 440.12 -67.08 434.36 -61.32C429.24 -56.2 422.52 -53.64 414.2 -53.64C405.88 -53.64 398.84 -56.2 393.08 -61.32C387.96 -67.08 385.4 -74.12 385.4 -82.4401ZM409.4 1112.76C409.4 1104.44 411.96 1097.4 417.08 1091.64C422.84 1086.52 429.88 1083.96 438.2 1083.96C446.52 1083.96 453.24 1086.52 458.36 1091.64C464.12 1097.4 467 1104.44 467 1112.76C467 1121.08 464.12 1127.8 458.36 1132.92C453.24 1138.68 446.52 1141.56 438.2 1141.56C429.88 1141.56 422.84 1138.68 417.08 1132.92C411.96 1127.8 409.4 1121.08 409.4 1112.76ZM581.24 895.8C588.28 915.64 596.6 933.88 606.2 950.52C615.8 967.8 628.92 988.6 645.56 1012.92C673.72 1054.52 691 1096.76 697.4 1139.64H716.6C723 1096.76 740.28 1054.52 768.44 1012.92C785.08 988.6 798.2 967.8 807.8 950.52C817.4 933.88 825.72 915.64 832.76 895.8H1003.64V213.24C945.4 229.88 902.84 263.48 875.96 314.04C849.08 364.6 835.64 435.64 835.64 527.16V662.52H842.36C869.88 662.52 883.64 673.4 883.64 695.16C883.64 706.04 879.16 714.36 870.2 720.12C861.88 725.88 848.12 729.72 828.92 731.64C819.96 707.32 809.4 685.88 797.24 667.32C779.32 638.52 765.56 609.72 755.96 580.92C747 552.12 742.52 515.64 742.52 471.48V232.44C742.52 197.88 739.64 170.04 733.88 148.92C728.76 127.8 720.12 103.48 707.96 75.96H706.04C693.88 103.48 684.92 127.8 679.16 148.92C674.04 170.04 671.48 197.88 671.48 232.44V471.48C671.48 515.64 666.68 552.12 657.08 580.92C648.12 609.72 634.68 638.52 616.76 667.32C604.6 685.88 594.04 707.32 585.08 731.64C565.88 729.72 551.8 725.88 542.84 720.12C534.52 714.36 530.36 706.04 530.36 695.16C530.36 673.4 544.12 662.52 571.64 662.52H578.36V527.16C578.36 435.64 564.92 364.6 538.04 314.04C511.16 263.48 468.6 229.88 410.36 213.24V895.8H581.24ZM618.68 1241.4C600.76 1233.72 581.88 1229.88 562.04 1229.88C535.16 1229.88 508.92 1236.28 483.32 1249.08C458.36 1261.88 437.88 1279.8 421.88 1302.84L618.68 1241.4ZM432.44 1323C452.28 1330.04 472.12 1333.56 491.96 1333.56C522.04 1333.56 549.88 1326.84 575.48 1313.4C601.08 1299.96 619.32 1282.36 630.2 1260.6L432.44 1323ZM458.36 727.8H492.92C505.08 754.04 531.96 768.76 573.56 771.96C570.36 787.96 568.76 801.72 568.76 813.24C568.76 820.92 569.4 832.44 570.68 847.8H458.36V727.8ZM458.36 290.04C483.32 310.52 501.56 339.64 513.08 377.4C524.6 414.52 530.36 464.44 530.36 527.16V626.04C519.48 631.16 509.88 638.52 501.56 648.12C493.88 657.72 489.08 668.28 487.16 679.8H458.36V290.04ZM604.28 -164.04C570.36 -153.16 543.16 -133.32 522.68 -104.52C502.2 -75.72 493.56 -44.3601 496.76 -10.4401L604.28 -164.04ZM513.08 6.83994C534.84 2.99995 554.68 -6.92004 572.6 -22.92C590.52 -39.56 604.28 -59.7201 613.88 -83.4001C623.48 -107.08 627.64 -130.76 626.36 -154.44L513.08 6.83994ZM597.56 1372.92C597.56 1364.6 600.12 1357.56 605.24 1351.8C611 1346.68 618.04 1344.12 626.36 1344.12C634.68 1344.12 641.4 1346.68 646.52 1351.8C652.28 1357.56 655.16 1364.6 655.16 1372.92C655.16 1381.24 652.28 1387.96 646.52 1393.08C641.4 1398.84 634.68 1401.72 626.36 1401.72C618.04 1401.72 611 1398.84 605.24 1393.08C600.12 1387.96 597.56 1381.24 597.56 1372.92ZM616.76 813.24C616.76 803.64 618.04 791.16 620.6 775.8C639.8 779.64 654.2 788.6 663.8 802.68C673.4 816.12 679.48 831.16 682.04 847.8H618.68C617.4 833.72 616.76 822.2 616.76 813.24ZM683 895.8V986.04L668.6 964.92C650.04 936.76 637.24 913.72 630.2 895.8H683ZM634.04 734.52C638.52 725.56 645.88 712.12 656.12 694.2C680.44 653.88 697.4 615.8 707 579.96C716.6 615.8 733.56 653.88 757.88 694.2C768.12 712.12 775.48 725.56 779.96 734.52C748.6 742.2 724.28 760.44 707 789.24C689.72 760.44 665.4 742.2 634.04 734.52ZM783.8 895.8C776.76 913.72 763.96 936.76 745.4 964.92L731 986.04V895.8H783.8ZM731.96 847.8C734.52 831.16 740.6 816.12 750.2 802.68C759.8 788.6 774.2 779.64 793.4 775.8C795.96 791.16 797.24 803.64 797.24 813.24C797.24 822.2 796.6 833.72 795.32 847.8H731.96ZM758.84 1372.92C758.84 1364.6 761.4 1357.56 766.52 1351.8C772.28 1346.68 779.32 1344.12 787.64 1344.12C795.96 1344.12 802.68 1346.68 807.8 1351.8C813.56 1357.56 816.44 1364.6 816.44 1372.92C816.44 1381.24 813.56 1387.96 807.8 1393.08C802.68 1398.84 795.96 1401.72 787.64 1401.72C779.32 1401.72 772.28 1398.84 766.52 1393.08C761.4 1387.96 758.84 1381.24 758.84 1372.92ZM783.8 1260.6C794.68 1282.36 812.92 1299.96 838.52 1313.4C864.12 1326.84 891.96 1333.56 922.04 1333.56C941.88 1333.56 961.72 1330.04 981.56 1323L783.8 1260.6ZM787.64 -154.44C786.36 -130.76 790.52 -107.08 800.12 -83.4001C809.72 -59.7201 823.48 -39.56 841.4 -22.92C859.32 -6.92004 879.16 2.99995 900.92 6.83994L787.64 -154.44ZM992.12 1302.84C976.12 1279.8 955.32 1261.88 929.72 1249.08C904.76 1236.28 878.84 1229.88 851.96 1229.88C832.76 1229.88 813.88 1233.72 795.32 1241.4L992.12 1302.84ZM917.24 -10.4401L918.2 -23.8801C918.2 -55.2401 907.96 -83.7201 887.48 -109.32C867.64 -135.56 841.72 -153.8 809.72 -164.04L917.24 -10.4401ZM840.44 771.96C882.04 768.76 908.92 754.04 921.08 727.8H955.64V847.8H843.32C844.6 832.44 845.24 820.92 845.24 813.24C845.24 801.72 843.64 787.96 840.44 771.96ZM883.64 527.16C883.64 464.44 889.4 414.52 900.92 377.4C912.44 339.64 930.68 310.52 955.64 290.04V679.8H926.84C924.92 668.28 919.8 657.72 911.48 648.12C903.8 638.52 894.52 631.16 883.64 626.04V527.16ZM947 1112.76C947 1104.44 949.56 1097.4 954.68 1091.64C960.44 1086.52 967.48 1083.96 975.8 1083.96C984.12 1083.96 990.84 1086.52 995.96 1091.64C1001.72 1097.4 1004.6 1104.44 1004.6 1112.76C1004.6 1121.08 1001.72 1127.8 995.96 1132.92C990.84 1138.68 984.12 1141.56 975.8 1141.56C967.48 1141.56 960.44 1138.68 954.68 1132.92C949.56 1127.8 947 1121.08 947 1112.76ZM971 -82.4401C971 -90.7601 973.56 -97.4801 978.68 -102.6C984.44 -108.36 991.48 -111.24 999.8 -111.24C1008.12 -111.24 1014.84 -108.36 1019.96 -102.6C1025.72 -97.4801 1028.6 -90.7601 1028.6 -82.4401C1028.6 -74.12 1025.72 -67.08 1019.96 -61.32C1014.84 -56.2 1008.12 -53.64 999.8 -53.64C991.48 -53.64 984.44 -56.2 978.68 -61.32C973.56 -67.08 971 -74.12 971 -82.4401ZM995 126.84C1015.48 140.92 1039.16 147.96 1066.04 147.96C1087.8 147.96 1108.28 143.48 1127.48 134.52C1146.68 124.92 1161.4 111.48 1171.64 94.2L995 126.84ZM1167.8 71.16C1146.04 58.36 1123.32 51.96 1099.64 51.96C1078.52 51.96 1058.68 56.44 1040.12 65.4C1021.56 74.36 1006.52 86.84 995 102.84L1167.8 71.16ZM1030.52 1275C1030.52 1266.68 1033.08 1259.64 1038.2 1253.88C1043.96 1248.76 1051 1246.2 1059.32 1246.2C1067.64 1246.2 1074.36 1248.76 1079.48 1253.88C1085.24 1259.64 1088.12 1266.68 1088.12 1275C1088.12 1283.32 1085.24 1290.04 1079.48 1295.16C1074.36 1300.92 1067.64 1303.8 1059.32 1303.8C1051 1303.8 1043.96 1300.92 1038.2 1295.16C1033.08 1290.04 1030.52 1283.32 1030.52 1275ZM1062.2 222.84C1062.2 214.52 1064.76 207.8 1069.88 202.68C1075.64 196.92 1082.68 194.04 1091 194.04C1099.32 194.04 1106.04 196.92 1111.16 202.68C1116.92 207.8 1119.8 214.52 1119.8 222.84C1119.8 231.16 1116.92 238.2 1111.16 243.96C1106.04 249.08 1099.32 251.64 1091 251.64C1082.68 251.64 1075.64 249.08 1069.88 243.96C1064.76 238.2 1062.2 231.16 1062.2 222.84ZM1086.2 992.76C1075.32 1004.92 1066.68 1019.32 1060.28 1035.96C1054.52 1053.24 1051.64 1071.16 1051.64 1089.72C1051.64 1125.56 1061.88 1154.68 1082.36 1177.08L1086.2 992.76ZM1105.4 1178.04C1116.92 1166.52 1125.56 1152.44 1131.32 1135.8C1137.08 1119.8 1139.96 1102.84 1139.96 1084.92C1139.96 1049.72 1129.72 1019 1109.24 992.76L1105.4 1178.04ZM1179.32 681.72C1179.32 673.4 1181.88 666.68 1187 661.56C1192.76 655.8 1199.8 652.92 1208.12 652.92C1216.44 652.92 1223.16 655.8 1228.28 661.56C1234.04 666.68 1236.92 673.4 1236.92 681.72C1236.92 690.04 1234.04 697.08 1228.28 702.84C1223.16 707.96 1216.44 710.52 1208.12 710.52C1199.8 710.52 1192.76 707.96 1187 702.84C1181.88 697.08 1179.32 690.04 1179.32 681.72ZM1344.44 813.24C1304.12 810.68 1271.16 817.4 1245.56 833.4C1220.6 848.76 1203 874.68 1192.76 911.16L1344.44 813.24ZM1193.72 528.12C1196.92 551.8 1205.56 573.56 1219.64 593.4C1233.72 612.6 1250.68 627.32 1270.52 637.56C1291 647.8 1312.12 651.64 1333.88 649.08L1193.72 528.12ZM1198.52 935.16C1211.32 937.72 1220.6 939 1226.36 939C1255.16 939 1282.04 929.08 1307 909.24C1331.96 889.4 1348.28 864.12 1355.96 833.4L1198.52 935.16ZM1347.32 629.88C1346.68 598.52 1333.56 571.96 1307.96 550.2C1282.36 528.44 1249.4 515.64 1209.08 511.8L1347.32 629.88ZM1235 141.24C1235 134.2 1237.24 128.44 1241.72 123.96C1246.84 119.48 1252.6 117.24 1259 117.24C1266.04 117.24 1271.8 119.48 1276.28 123.96C1280.76 128.44 1283 134.2 1283 141.24C1283 147.64 1280.76 153.4 1276.28 158.52C1271.8 163 1266.04 165.24 1259 165.24C1252.6 165.24 1246.84 163 1241.72 158.52C1237.24 153.4 1235 147.64 1235 141.24ZM1270.52 206.52C1253.88 219.96 1240.76 236.92 1231.16 257.4C1222.2 277.24 1217.72 297.72 1217.72 318.84C1217.72 346.36 1225.08 369.72 1239.8 388.92L1270.52 206.52ZM1253.24 1007.16C1253.24 998.84 1255.8 991.8 1260.92 986.04C1266.68 980.92 1273.72 978.36 1282.04 978.36C1290.36 978.36 1297.08 980.92 1302.2 986.04C1307.96 991.8 1310.84 998.84 1310.84 1007.16C1310.84 1015.48 1307.96 1022.2 1302.2 1027.32C1297.08 1033.08 1290.36 1035.96 1282.04 1035.96C1273.72 1035.96 1266.68 1033.08 1260.92 1027.32C1255.8 1022.2 1253.24 1015.48 1253.24 1007.16ZM1261.88 398.52C1279.16 387.64 1292.6 372.92 1302.2 354.36C1311.8 335.8 1316.6 315.64 1316.6 293.88C1316.6 266.36 1308.92 238.84 1293.56 211.32L1261.88 398.52ZM1334.84 405.24C1334.84 398.2 1337.08 392.44 1341.56 387.96C1346.68 383.48 1352.44 381.24 1358.84 381.24C1365.88 381.24 1371.64 383.48 1376.12 387.96C1380.6 392.44 1382.84 398.2 1382.84 405.24C1382.84 411.64 1380.6 417.4 1376.12 422.52C1371.64 427 1365.88 429.24 1358.84 429.24C1352.44 429.24 1346.68 427 1341.56 422.52C1337.08 417.4 1334.84 411.64 1334.84 405.24ZM1351.16 744.12C1351.16 737.08 1353.4 731.32 1357.88 726.84C1363 722.36 1368.76 720.12 1375.16 720.12C1382.2 720.12 1387.96 722.36 1392.44 726.84C1396.92 731.32 1399.16 737.08 1399.16 744.12C1399.16 750.52 1396.92 756.28 1392.44 761.4C1387.96 765.88 1382.2 768.12 1375.16 768.12C1368.76 768.12 1363 765.88 1357.88 761.4C1353.4 756.28 1351.16 750.52 1351.16 744.12Z" fill="url(#paint0_linear_301_5)"/>
<defs>
<linearGradient id="paint0_linear_301_5" x1="387" y1="64" x2="387" y2="1016" gradientUnits="userSpaceOnUse">
<stop stop-color="#182030"/>
<stop offset="1" stop-color="#101010"/>
</linearGradient>
</defs>
</svg>
