<svg width="64" height="64" viewBox="0 0 64 64" fill="none" xmlns="http://www.w3.org/2000/svg">
<g clip-path="url(#clip0_301_18)">
<path d="M62 32C62 48.5685 48.5685 62 32 62C15.4315 62 2 48.5685 2 32C2 15.4315 15.4315 2 32 2C48.5685 2 62 15.4315 62 32Z" stroke="white" stroke-width="4"/>
<path fill-rule="evenodd" clip-rule="evenodd" d="M14.485 31.6622C23.8136 27.5979 30.0342 24.9184 33.1466 23.6238C42.0334 19.9275 43.88 19.2854 45.0836 19.2642C45.3483 19.2596 45.9402 19.3252 46.3236 19.6363C46.6473 19.899 46.7364 20.2538 46.779 20.5029C46.8216 20.7519 46.8747 21.3193 46.8325 21.7626C46.3509 26.8226 44.2672 39.1017 43.207 44.769C42.7585 47.167 41.8752 47.971 41.0201 48.0497C39.1618 48.2207 37.7507 46.8216 35.9509 45.6418C33.1345 43.7956 31.5434 42.6463 28.8096 40.8448C25.6502 38.7628 27.6983 37.6185 29.4988 35.7484C29.97 35.259 38.1577 27.8116 38.3162 27.136C38.336 27.0515 38.3544 26.7366 38.1673 26.5703C37.9802 26.404 37.704 26.4608 37.5047 26.5061C37.2223 26.5702 32.723 29.544 24.007 35.4276C22.7299 36.3046 21.5731 36.7318 20.5367 36.7094C19.3941 36.6848 17.1963 36.0634 15.5624 35.5323C13.5584 34.8809 11.9657 34.5365 12.1044 33.4302C12.1766 32.8539 12.9701 32.2646 14.485 31.6622Z" fill="white"/>
</g>
<defs>
<clipPath id="clip0_301_18">
<rect width="64" height="64" fill="white"/>
</clipPath>
</defs>
</svg>
